<?xml version="1.0" encoding="utf-8"?>
<!-- Generator: Adobe Illustrator 24.0.0, SVG Export Plug-In . SVG Version: 6.00 Build 0)  -->
<svg version="1.1" id="Layer_1" xmlns="http://www.w3.org/2000/svg" xmlns:xlink="http://www.w3.org/1999/xlink" x="0px" y="0px"
	 viewBox="0 0 247 44" style="enable-background:new 0 0 247 44;" xml:space="preserve">
<style type="text/css">
	.st0{fill:#4E4E4E;}
	.st1{fill:#92C855;}
	.st2{fill-rule:evenodd;clip-rule:evenodd;fill:#FFFFFF;}
</style>
<g>
	<g>
		<g>
			<path class="st0" d="M48.2,14.7c-0.7,0-1.2-0.5-1.2-1.2c0-0.7,0.5-1.2,1.2-1.2h1.3v-2.3c0-3.5,2-6.6,6.7-6.6
				c0.7,0,1.2,0.5,1.2,1.2s-0.5,1.2-1.2,1.2c-3,0-4.2,1.8-4.2,4.3v2.3h3.5c0.7,0,1.2,0.5,1.2,1.2c0,0.7-0.5,1.2-1.2,1.2H52V29
				c0,0.7-0.5,1.2-1.2,1.2c-0.7,0-1.2-0.5-1.2-1.2V14.7H48.2z"/>
			<path class="st0" d="M62,15c0.8-1.8,2.7-3.1,5.4-3.1c0.7,0,1.2,0.5,1.2,1.2c0,0.7-0.5,1.2-1.2,1.2c-3.6,0-5.4,2.5-5.4,6V29
				c0,0.7-0.5,1.2-1.2,1.2c-0.7,0-1.2-0.5-1.2-1.2V13.3c0-0.7,0.5-1.2,1.2-1.2c0.7,0,1.2,0.5,1.2,1.2V15z"/>
			<path class="st0" d="M77.6,11.8c6.2,0,7.4,4.9,7.4,7.5c0,1.1,0,2.5-1.5,2.5H72.1c0,3.8,2.2,6.3,5.8,6.3c2.2,0,3.6-0.9,4.6-1.7
				c0.2-0.2,0.4-0.2,0.7-0.2c0.6,0,1.1,0.5,1.1,1.1c0,0.4-0.2,0.7-0.4,0.9c-0.6,0.6-2.6,2.2-6,2.2c-5.1,0-8.4-2.8-8.4-9.3
				C69.6,15.2,72.5,11.8,77.6,11.8z M77.6,14.1c-3.4,0-5.2,2.2-5.5,5.6h10.4C82.5,16.9,81.5,14.1,77.6,14.1z"/>
			<path class="st0" d="M90.5,16.6c0,4.1,10.2,2.6,10.2,8.7c0,3.5-2.9,5.1-6.6,5.1c-3.2,0-5.6-1.5-6.6-2.8c-0.2-0.3-0.3-0.5-0.3-0.7
				c0-0.6,0.5-1.1,1.1-1.1c0.2,0,0.5,0.1,0.9,0.4c1.2,1.2,2.7,1.9,4.9,1.9c2.2,0,4.1-0.7,4.1-2.7c0-4-10.2-2.4-10.2-8.7
				c0-3.2,2.6-4.7,5.9-4.7c2.6,0,4.7,0.9,5.9,2.5c0.1,0.2,0.3,0.4,0.3,0.7c0,0.6-0.5,1.1-1.1,1.1c-0.2,0-0.5,0-0.8-0.3
				c-1-1-2.2-1.6-4.2-1.6C92.2,14.2,90.5,14.8,90.5,16.6z"/>
			<path class="st0" d="M119.2,18.7V29c0,0.7-0.5,1.2-1.2,1.2c-0.7,0-1.2-0.5-1.2-1.2v-9.8c0-3.1-0.9-5.1-4.6-5.1
				c-3.8,0-5.1,2.3-5.1,5.4V29c0,0.7-0.5,1.2-1.2,1.2c-0.7,0-1.2-0.5-1.2-1.2V3.6c0-0.7,0.5-1.2,1.2-1.2c0.7,0,1.2,0.5,1.2,1.2v10.9
				c0.7-1.5,2.6-2.7,5.1-2.7C118,11.8,119.2,15.4,119.2,18.7z"/>
			<path class="st0" d="M125.5,16.6c0,4.1,10.2,2.6,10.2,8.7c0,3.5-2.9,5.1-6.6,5.1c-3.2,0-5.6-1.5-6.6-2.8
				c-0.2-0.3-0.3-0.5-0.3-0.7c0-0.6,0.5-1.1,1.1-1.1c0.2,0,0.5,0.1,0.9,0.4c1.2,1.2,2.7,1.9,4.9,1.9c2.2,0,4.1-0.7,4.1-2.7
				c0-4-10.2-2.4-10.2-8.7c0-3.2,2.6-4.7,5.9-4.7c2.6,0,4.7,0.9,5.9,2.5c0.1,0.2,0.3,0.4,0.3,0.7c0,0.6-0.5,1.1-1.1,1.1
				c-0.2,0-0.5,0-0.8-0.3c-1-1-2.2-1.6-4.2-1.6C127.2,14.2,125.5,14.8,125.5,16.6z"/>
			<path class="st0" d="M141.6,13.3v10.1c0,2.5,0.8,4.7,4.7,4.7c3.9,0,4.7-2.2,4.7-4.7V13.3c0-0.7,0.6-1.2,1.3-1.2
				c0.7,0,1.2,0.5,1.2,1.2v10.1c0,3.7-1.2,7-7.2,7c-6,0-7.2-3.4-7.2-7V13.3c0-0.7,0.5-1.2,1.2-1.2C141,12.1,141.6,12.6,141.6,13.3z"
				/>
			<path class="st0" d="M164.6,11.8c3.4,0,5.3,1.8,6,2.7c0.2,0.3,0.3,0.5,0.3,0.7c0,0.7-0.5,1.1-1.1,1.1c-0.4,0-0.7-0.2-0.9-0.5
				c-0.6-0.7-1.6-1.8-4.2-1.8c-3.6,0-5.5,2.3-5.5,7c0,4.8,1.9,7.1,5.5,7.1c2.2,0,3.6-1,4.5-1.7c0.3-0.2,0.5-0.3,0.7-0.3
				c0.6,0,1.1,0.5,1.1,1.1c0,0.3-0.1,0.6-0.5,1c-0.9,0.7-2.7,2.1-5.8,2.1c-5,0-8-3-8-9.3C156.7,14.8,159.6,11.8,164.6,11.8z"/>
			<path class="st0" d="M181.3,11.8c3.4,0,5.3,1.8,6,2.7c0.2,0.3,0.3,0.5,0.3,0.7c0,0.7-0.5,1.1-1.1,1.1c-0.4,0-0.7-0.2-0.9-0.5
				c-0.6-0.7-1.6-1.8-4.2-1.8c-3.6,0-5.5,2.3-5.5,7c0,4.8,1.9,7.1,5.5,7.1c2.2,0,3.6-1,4.5-1.7c0.3-0.2,0.5-0.3,0.7-0.3
				c0.6,0,1.1,0.5,1.1,1.1c0,0.3-0.1,0.6-0.5,1c-0.9,0.7-2.7,2.1-5.8,2.1c-5,0-8-3-8-9.3C173.4,14.8,176.3,11.8,181.3,11.8z"/>
			<path class="st0" d="M198,11.8c6.2,0,7.4,4.9,7.4,7.5c0,1.1,0,2.5-1.5,2.5h-11.3c0,3.8,2.2,6.3,5.8,6.3c2.2,0,3.6-0.9,4.6-1.7
				c0.2-0.2,0.4-0.2,0.7-0.2c0.6,0,1.1,0.5,1.1,1.1c0,0.4-0.2,0.7-0.4,0.9c-0.6,0.6-2.6,2.2-6,2.2c-5.1,0-8.4-2.8-8.4-9.3
				C190.1,15.2,193,11.8,198,11.8z M198,14.1c-3.4,0-5.2,2.2-5.5,5.6H203C203,16.9,202,14.1,198,14.1z"/>
			<path class="st0" d="M210.9,16.6c0,4.1,10.2,2.6,10.2,8.7c0,3.5-2.9,5.1-6.6,5.1c-3.2,0-5.6-1.5-6.6-2.8
				c-0.2-0.3-0.3-0.5-0.3-0.7c0-0.6,0.5-1.1,1.1-1.1c0.2,0,0.5,0.1,0.9,0.4c1.2,1.2,2.7,1.9,4.9,1.9c2.2,0,4.1-0.7,4.1-2.7
				c0-4-10.2-2.4-10.2-8.7c0-3.2,2.6-4.7,5.9-4.7c2.6,0,4.7,0.9,5.9,2.5c0.1,0.2,0.3,0.4,0.3,0.7c0,0.6-0.5,1.1-1.1,1.1
				c-0.2,0-0.5,0-0.8-0.3c-1-1-2.2-1.6-4.2-1.6C212.6,14.2,210.9,14.8,210.9,16.6z"/>
			<path class="st0" d="M227,16.6c0,4.1,10.2,2.6,10.2,8.7c0,3.5-2.9,5.1-6.6,5.1c-3.2,0-5.6-1.5-6.6-2.8c-0.2-0.3-0.3-0.5-0.3-0.7
				c0-0.6,0.5-1.1,1.1-1.1c0.2,0,0.5,0.1,0.9,0.4c1.2,1.2,2.7,1.9,4.9,1.9c2.2,0,4.1-0.7,4.1-2.7c0-4-10.2-2.4-10.2-8.7
				c0-3.2,2.6-4.7,5.9-4.7c2.6,0,4.7,0.9,5.9,2.5c0.1,0.2,0.3,0.4,0.3,0.7c0,0.6-0.5,1.1-1.1,1.1c-0.2,0-0.5,0-0.8-0.3
				c-1-1-2.2-1.6-4.2-1.6C228.7,14.2,227,14.8,227,16.6z"/>
		</g>
	</g>
	<g>
		<path class="st1" d="M41.2,11.7c0-2.4-2-4.4-4.4-4.4H24v0c-9.7,0-17.6,8.1-17.1,18c0.4,8.7,7.6,15.9,16.3,16.3
			c9.8,0.5,18-7.4,18-17.1c0,0,0,0,0-0.1h0V11.7z"/>
		<g>
			<path id="Fill-1-Copy_1_" class="st2" d="M33.3,22.1c0-0.1,0-0.2,0-0.3c0-0.2,0-0.5,0-0.7c-0.6-5.4-7.5-6.9-9.3-0.8
				c-1.8-6.1-8.7-4.5-9.3,0.8c0,0.2,0,0.5,0,0.7c0,0.1,0,0.2,0,0.3c0,0,0,0.1,0,0.1c0,0,0,0.1,0,0.1C15.2,28.1,24,34,24,34
				s8.8-5.8,9.3-11.6c0,0,0-0.1,0-0.1C33.3,22.2,33.3,22.2,33.3,22.1z"/>
		</g>
	</g>
</g>
</svg>
